<svg width="78" height="37" viewBox="0 0 78 37" fill="none" xmlns="http://www.w3.org/2000/svg">
<path d="M4.4 29.48C4.21333 30.0667 3.78667 30.36 3.12 30.36C2.48 30.36 1.74667 30 0.92 29.28C1.72 26.9333 3.41333 23.16 6 17.96C8.58667 12.7333 10.2667 8.82667 11.04 6.24C11.1467 5.81333 11.2 5.52 11.2 5.36C11.2 4.96 10.9067 4.34666 10.32 3.52L10 3.08L10.08 2.56C12.3467 1.92 14.8533 1.6 17.6 1.6L20.04 1.76C20.3333 2.16 20.56 2.77333 20.72 3.6C21.1467 5.62666 21.36 10.84 21.36 19.24C21.36 22.4933 21.64 24.7867 22.2 26.12C22.4133 26.6267 22.6267 26.88 22.84 26.88C23.0533 26.88 23.7067 26.6133 24.8 26.08L25.32 25.84L26.12 27.28C25.1067 28.2667 23.9733 29.0533 22.72 29.64C21.4933 30.2 20.36 30.48 19.32 30.48C16.6267 30.48 15.28 28.3867 15.28 24.2V21.04C14.5867 20.88 13.5333 20.8 12.12 20.8C10.7067 20.8 9.16 20.9333 7.48 21.2C6.14667 24.2933 5.12 27.0533 4.4 29.48ZM15.36 18.32L15.4 13.68C15.4 9.62667 15.2267 6.88 14.88 5.44C14.6667 5.44 14.5067 5.46667 14.4 5.52C13.6533 7.57333 12.9467 9.32 12.28 10.76C11.64 12.1733 10.9333 13.6933 10.16 15.32C9.41333 16.92 8.94667 17.92 8.76 18.32H15.36ZM29.3269 30.48C28.4202 30.48 27.6602 30.1733 27.0469 29.56C26.4602 28.9467 26.1669 28.0933 26.1669 27C26.1669 25.88 26.8202 22.3467 28.1269 16.4C29.4602 10.4267 30.1269 6.12 30.1269 3.48L29.8869 1.72C31.9669 0.999999 33.9135 0.639999 35.7269 0.639999C35.9935 1.01333 36.1269 1.66667 36.1269 2.6C36.1269 4.73333 35.4469 8.86667 34.0869 15C32.7535 21.1067 32.0869 24.6667 32.0869 25.68C32.0869 26.6667 32.2069 27.16 32.4469 27.16L35.2469 26.16L35.9669 27.56C35.0602 28.28 33.9535 28.9467 32.6469 29.56C31.3669 30.1733 30.2602 30.48 29.3269 30.48ZM45.1519 14.76C45.1519 15.88 44.7919 17.8133 44.0719 20.56C43.3519 23.28 42.9919 25.0667 42.9919 25.92C42.9919 26.7467 43.1119 27.16 43.3519 27.16C43.5119 27.16 44.1252 26.9067 45.1919 26.4L45.6719 26.16L46.3519 27.56C46.1119 27.7733 45.7919 28.04 45.3919 28.36C44.9919 28.68 44.2452 29.12 43.1519 29.68C42.0585 30.2133 41.0452 30.48 40.1119 30.48C39.1785 30.48 38.4452 30.2 37.9119 29.64C37.3785 29.0533 37.1119 28.28 37.1119 27.32C37.1119 26.3333 37.4452 24.6 38.1119 22.12C38.7785 19.6133 39.1119 17.9867 39.1119 17.24C39.1119 16.12 38.7652 15.0667 38.0719 14.08L37.7119 13.6L37.7519 13.08C39.1652 12.68 41.4585 12.48 44.6319 12.48C44.9785 12.88 45.1519 13.64 45.1519 14.76ZM40.5919 8.12C40.0585 7.58667 39.7919 6.88 39.7919 6C39.7919 5.12 40.1519 4.34667 40.8719 3.68C41.6185 3.01333 42.4719 2.68 43.4319 2.68C44.3919 2.68 45.1385 2.94667 45.6719 3.48C46.2052 4.01333 46.4719 4.72 46.4719 5.6C46.4719 6.45333 46.0852 7.21333 45.3119 7.88C44.5652 8.54667 43.7252 8.88 42.7919 8.88C41.8585 8.88 41.1252 8.62667 40.5919 8.12ZM59.4503 12.76C59.397 13.3467 59.157 14.12 58.7303 15.08C57.717 14.9733 56.717 14.92 55.7303 14.92H55.5703C55.0103 21.5067 54.4903 26.3733 54.0103 29.52C53.5303 32.6667 52.9036 34.8667 52.1303 36.12C51.1703 36.0933 50.1703 35.96 49.1303 35.72C48.117 35.5067 47.4236 35.28 47.0503 35.04C47.6903 33.0667 48.3303 30.0933 48.9703 26.12C49.637 22.1467 50.0636 18.48 50.2503 15.12C49.5036 15.1733 48.677 15.2667 47.7703 15.4C47.6903 15.0533 47.6503 14.7067 47.6503 14.36C47.6503 13.9867 47.7036 13.4533 47.8103 12.76H50.3703C50.4236 10.44 50.5436 8.68 50.7303 7.48C51.0503 5.34667 51.7836 3.68 52.9303 2.48C54.1036 1.25333 55.6103 0.639999 57.4503 0.639999C58.6236 0.639999 59.5436 0.906665 60.2103 1.44C60.9036 1.94666 61.2503 2.76 61.2503 3.88C61.2503 5 60.7436 6.45333 59.7303 8.24C58.717 10 57.3836 11.5067 55.7303 12.76H59.4503ZM55.8103 10.24C56.8503 9.36 57.6636 8.38667 58.2503 7.32C58.837 6.25333 59.1303 5.29333 59.1303 4.44C59.1303 3.56 58.8503 3.12 58.2903 3.12C57.117 3.12 56.3703 4.46666 56.0503 7.16C55.9436 8.06667 55.8636 9.09333 55.8103 10.24ZM71.4091 13.44C71.4624 13.3867 71.6091 13.04 71.8491 12.4C73.1024 12.4 74.7824 12.7733 76.8891 13.52C76.2224 15.7333 75.6891 18.0533 75.2891 20.48C74.8891 22.88 74.6891 24.6 74.6891 25.64C74.6891 26.6533 74.7957 27.16 75.0091 27.16C75.1691 27.16 75.7557 26.9067 76.7691 26.4L77.2491 26.16L77.9691 27.56C77.7291 27.7733 77.4091 28.04 77.0091 28.36C76.6357 28.68 75.9157 29.12 74.8491 29.68C73.7824 30.2133 72.8224 30.48 71.9691 30.48C70.3157 30.48 69.3557 29.7333 69.0891 28.24C67.3824 29.7333 65.8357 30.48 64.4491 30.48C63.0891 30.48 61.9291 29.9467 60.9691 28.88C60.0357 27.8133 59.5691 26.1333 59.5691 23.84C59.5691 20.2667 60.3024 17.4533 61.7691 15.4C63.2357 13.32 65.0091 12.28 67.0891 12.28C68.5824 12.28 70.0224 12.6667 71.4091 13.44ZM66.8491 27.08C67.4891 27.08 68.2091 26.8267 69.0091 26.32C69.1957 22.56 69.8224 18.84 70.8891 15.16C70.0891 14.8133 69.4091 14.64 68.8491 14.64C67.8891 14.64 67.0624 15.5867 66.3691 17.48C65.7024 19.3467 65.3691 21.4133 65.3691 23.68C65.3691 25.9467 65.8624 27.08 66.8491 27.08Z" fill="white"/>
</svg>
