<svg 
          width="18" 
          height="14" fill="none" 
          xmlns="http://www.w3.org/2000/svg">
          <path d="M 0 4.09805525859797 L 1.6363636363636365 5.898408925987023 C 5.702727101065896 1.4245302513898412 12.297272898934104 1.4245302513898412 16.363636363636363 5.898408925987023 L 18 4.09805525859797 C 13.033636223186146 -1.366018276453402 4.974545392123136 -1.366018276453402 0 4.09805525859797 Z M 6.545454545454546 11.29946949891642 L 9 14 L 11.454545454545455 11.29946949891642 C 11.132518806240776 10.944225350929464 10.749950750307605 10.662375240127869 10.328757372769443 10.470065387628068 C 9.907563995231282 10.277755535128268 9.456022349270908 10.178764896543276 9 10.178764896543274 C 8.543977650729092 10.178764896543276 8.092436004768718 10.277755535128268 7.671242627230558 10.470065387628068 C 7.250049249692397 10.662375240127869 6.867481193759225 10.944225350929464 6.545454545454546 11.29946949891642 L 6.545454545454546 11.29946949891642 Z M 3.272727272727273 7.698762164138313 L 4.909090909090909 9.499115831527368 C 5.994379195300016 8.306053438997772 7.465806289152665 7.635881407247424 9 7.635881407247422 C 10.534193710847335 7.635881407247422 12.005620804699985 8.306053438997772 13.090909090909092 9.499115831527368 L 14.727272727272728 7.698762164138313 C 11.569090994921599 4.224079680509748 6.439090815457432 4.224079680509748 3.272727272727273 7.698762164138313 Z" fill="rgb(0,0,0)"/>
        </svg>